<?xml version="1.0" encoding="iso-8859-1"?>
<!-- Generator: Adobe Illustrator 17.1.0, SVG Export Plug-In . SVG Version: 6.00 Build 0)  -->
<!DOCTYPE svg PUBLIC "-//W3C//DTD SVG 1.1//EN" "http://www.w3.org/Graphics/SVG/1.1/DTD/svg11.dtd">
<svg version="1.1" id="Capa_1" xmlns="http://www.w3.org/2000/svg" xmlns:xlink="http://www.w3.org/1999/xlink" x="0px" y="0px"
	 viewBox="0 0 435 435" style="enable-background:new 0 0 435 435;" xml:space="preserve">
<g>
	<path d="M71.495,370.348c0-4.411-3.589-8-8-8s-8,3.589-8,8s3.589,8,8,8S71.495,374.759,71.495,370.348z"/>
	<path d="M435,200.265c0-20.291-16.507-36.798-36.798-36.798h-85.375c15.766-33.002,22.958-69.6,20.844-106.613
		c-0.56-9.813-4.909-18.821-12.244-25.364c-7.335-6.542-16.783-9.838-26.592-9.276c-9.813,0.56-18.82,4.909-25.363,12.244
		s-9.837,16.779-9.276,26.592c1.751,30.659-5.969,60.426-22.327,86.08c-4.1,6.431-16.928,17.231-28.506,20.214
		c-26.479,6.82-50.192,22.518-67.17,44.377h-36.198v-40.755c0-4.142-3.358-7.5-7.5-7.5H7.5c-4.142,0-7.5,3.358-7.5,7.5
		s3.358,7.5,7.5,7.5h83.495v219.38H7.5c-4.142,0-7.5,3.358-7.5,7.5s3.358,7.5,7.5,7.5h90.995c4.142,0,7.5-3.358,7.5-7.5v-40.755
		h36.2c23.551,30.285,60.08,48.255,98.489,48.255h91.518c4.142,0,7.5-3.358,7.5-7.5s-3.358-7.5-7.5-7.5h-91.518
		c-34.919,0-68.073-16.887-88.688-45.172c-1.412-1.937-3.664-3.083-6.061-3.083h-39.94V226.722h39.94
		c2.397,0,4.649-1.146,6.061-3.083c15.059-20.664,36.761-35.498,61.109-41.77c15.08-3.884,31.162-16.872,37.412-26.676
		c18.061-28.326,26.586-61.177,24.654-95c-0.332-5.813,1.62-11.407,5.495-15.752c3.875-4.345,9.211-6.921,15.024-7.253
		c5.81-0.33,11.407,1.619,15.752,5.495c4.345,3.875,6.921,9.211,7.253,15.024c2.109,36.92-5.714,73.386-22.635,105.758h-15.508
		c-4.142,0-7.5,3.358-7.5,7.5s3.358,7.5,7.5,7.5h19.918c0.024,0,0.048,0,0.072,0h97.66c12.02,0,21.798,9.778,21.798,21.798
		c0,12.019-9.778,21.797-21.798,21.797h-12h-24c-4.142,0-7.5,3.358-7.5,7.5s3.358,7.5,7.5,7.5h24
		c12.02,0,21.798,9.778,21.798,21.798c0,12.019-9.778,21.797-21.798,21.797h-12h-12c-4.142,0-7.5,3.358-7.5,7.5s3.358,7.5,7.5,7.5
		h12c12.02,0,21.798,9.778,21.798,21.798c0,12.019-9.778,21.797-21.798,21.797h-12c-4.142,0-7.5,3.358-7.5,7.5s3.358,7.5,7.5,7.5
		c12.02,0,21.798,9.778,21.798,21.798c0,12.019-9.778,21.797-21.798,21.797c-4.142,0-7.5,3.358-7.5,7.5s3.358,7.5,7.5,7.5
		c20.291,0,36.798-16.507,36.798-36.797c0-9.638-3.725-18.422-9.81-24.99c12.841-5.75,21.81-18.65,21.81-33.605
		c0-9.637-3.725-18.422-9.81-24.99c12.841-5.75,21.81-18.65,21.81-33.605c0-9.637-3.725-18.422-9.81-24.99
		C426.031,228.12,435,215.22,435,200.265z"/>
</g>
<g>
</g>
<g>
</g>
<g>
</g>
<g>
</g>
<g>
</g>
<g>
</g>
<g>
</g>
<g>
</g>
<g>
</g>
<g>
</g>
<g>
</g>
<g>
</g>
<g>
</g>
<g>
</g>
<g>
</g>
</svg>
